<?xml version="1.0" encoding="UTF-8"?>
<svg width="14px" height="13px" viewBox="0 0 14 13" version="1.1" xmlns="http://www.w3.org/2000/svg" xmlns:xlink="http://www.w3.org/1999/xlink">
    <title>bullet</title>
    <g id="Page-1" stroke="none" stroke-width="1" fill="none" fill-rule="evenodd">
        <g id="DDN_Menu" transform="translate(-170.000000, -250.000000)" fill="#212E62" fill-rule="nonzero">
            <g id="." transform="translate(170.800000, 250.560000)">
                <path d="M6.48,11.64 C7.56,10 8.76,8.64 10.08,7.56 C10.44,7.32 10.95,6.97 11.61,6.51 C12.1233333,6.15222222 12.5338272,5.87308642 12.8414815,5.67259259 L13.08,5.52 C12.2,5.24 11.36,4.72 10.56,3.96 C9.28,2.76 8.49,2.05 8.19,1.83 C7.89,1.61 7.58,1.22 7.26,0.66 C6.94,0.22 6.76,0 6.72,0 C5.8,1.52 3.56,3.38 0,5.58 C3.12,7.98 5.28,10 6.48,11.64 Z"></path>
            </g>
        </g>
    </g>
</svg>