<?xml version="1.0" encoding="UTF-8"?>
<svg width="28px" height="25px" viewBox="0 0 28 25" version="1.1" xmlns="http://www.w3.org/2000/svg" xmlns:xlink="http://www.w3.org/1999/xlink">
    <title>bullet-lg</title>
    <g id="Page-1" stroke="none" stroke-width="1" fill="none" fill-rule="evenodd">
        <g id="DDN_Menu" transform="translate(-862.000000, -508.000000)" fill="#212E62" fill-rule="nonzero">
            <g id="bullet-lg" transform="translate(862.800000, 508.200000)">
                <path d="M13.3608247,24 C15.5876289,20.6185567 18.0618557,17.814433 20.7835052,15.5876289 C21.5257732,15.0927835 22.5773196,14.371134 23.9381443,13.4226804 C24.9965636,12.6849943 25.8429426,12.1094565 26.4772814,11.6960672 L26.9690722,11.3814433 C25.1546392,10.8041237 23.4226804,9.73195876 21.7731959,8.16494845 C19.1340206,5.69072165 17.5051546,4.22680412 16.8865979,3.77319588 C16.2680412,3.31958763 15.628866,2.51546392 14.9690722,1.36082474 C14.3092784,0.453608247 13.9381443,0 13.8556701,0 C11.9587629,3.13402062 7.34020619,6.96907216 0,11.5051546 C6.43298969,16.4536082 10.8865979,20.6185567 13.3608247,24 Z" id="."></path>
            </g>
        </g>
    </g>
</svg>