<?xml version="1.0" encoding="UTF-8"?>
<svg width="154px" height="14px" viewBox="0 0 154 14" version="1.1" xmlns="http://www.w3.org/2000/svg" xmlns:xlink="http://www.w3.org/1999/xlink">
    <title>Daily-News</title>
    <g id="Page-1" stroke="none" stroke-width="1" fill="none" fill-rule="evenodd">
        <g id="DDN_Article" transform="translate(-435.000000, -117.000000)" fill="#000000" fill-rule="nonzero">
            <g id="DDN-Logo" transform="translate(401.000000, 35.000000)">
                <g id="Daily-News" transform="translate(34.000000, 82.000000)">
                    <path d="M0,13.4285714 L0,13.0714286 L1.52403393,12.5714286 L1.52403393,1.42857143 L0,0.928571429 L0,0.5 L3.1206409,0.5 L3.1206409,13.4285714 L0,13.4285714 Z M11.1762488,6.78571429 C11.1762488,4.92857143 10.5956645,3.57142857 9.43449576,2.71428571 C8.27332705,1.85714286 6.74929312,1.42857143 4.71724788,1.42857143 L2.10461828,1.42857143 L2.10461828,0.5 L5.22525919,0.5 C6.96701225,0.5 8.34590009,0.714285714 9.5070688,1.14285714 C10.6682375,1.57142857 11.466541,2.28571429 12.0471254,3.14285714 C12.6277097,4.07142857 12.9180019,5.14285714 12.9180019,6.57142857 C12.9180019,8 12.5551367,9.28571429 11.9019793,10.2857143 C11.2488219,11.2857143 10.3053723,12.0714286 9.14420358,12.6428571 C7.98303487,13.2142857 6.67672008,13.4285714 5.22525919,13.4285714 L2.10461828,13.4285714 L2.10461828,12.5 L4.93496701,12.5 C6.16870877,12.5 7.25730443,12.2857143 8.20075401,11.9285714 C9.14420358,11.5714286 9.86993402,10.9285714 10.3779453,10.0714286 C10.9585297,9.21428571 11.1762488,8.14285714 11.1762488,6.78571429 Z" id="Shape"></path>
                    <path d="M29.6823751,12.5 L31.133836,13 L31.133836,13.3571429 L26.3440151,13.3571429 L26.3440151,13 L28.0131951,12.5 L23.5136664,1.92857143 L24.1668238,1.92857143 L19.9575872,12.5714286 L21.5541942,13.0714286 L21.5541942,13.4285714 L17.4175306,13.4285714 L17.4175306,13.0714286 L18.9415646,12.5714286 L24.0216777,0.357142857 L24.4571159,0.357142857 L29.6823751,12.5 Z M20.9736098,8.57142857 L20.9736098,7.71428571 L27.4326107,7.71428571 L27.4326107,8.57142857 L20.9736098,8.57142857 Z" id="Shape"></path>
                    <polygon id="Path" points="40.6409048 13.0714286 40.6409048 13.4285714 35.99623 13.4285714 35.99623 13.0714286 37.5202639 12.5714286 37.5202639 1.42857143 35.99623 0.928571429 35.99623 0.5 40.6409048 0.5 40.6409048 0.857142857 39.1168709 1.35714286 39.1168709 12.5"></polygon>
                    <path d="M50.0754006,1.35714286 L50.0754006,13.4285714 L46.9547597,13.4285714 L46.9547597,13.0714286 L48.4787936,12.5714286 L48.4787936,1.42857143 L46.9547597,0.928571429 L46.9547597,0.5 L51.5994345,0.5 L51.5994345,0.857142857 L50.0754006,1.35714286 Z M56.4618285,14 L56.2441093,14 L55.0829406,13.4285714 L49.131951,13.4285714 L49.131951,12.5 L56.3166824,12.5 L54.9377945,12.7857143 L56.8972667,9.57142857 L57.332705,9.64285714 L56.4618285,14 Z" id="Shape"></path>
                    <polygon id="Path" points="61.6145146 1.42857143 60.1630537 0.928571429 60.1630537 0.5 65.1705938 0.5 65.1705938 0.857142857 63.5739868 1.35714286 67.7832234 7.35714286 67.130066 7.35714286 70.5409991 1.35714286 68.9443921 0.857142857 68.9443921 0.5 73.1536287 0.5 73.1536287 0.857142857 71.6295947 1.35714286 67.7106503 7.71428571 67.7106503 12.5 69.2346843 13 69.2346843 13.3571429 64.5900094 13.3571429 64.5900094 13 66.1140434 12.5 66.1140434 7.78571429"></polygon>
                    <polygon id="Path" points="88.0311027 12.5714286 88.0311027 1.57142857 86.4344958 0.928571429 86.4344958 0.5 89.4825636 0.5 97.6107446 11 97.1753063 11.8571429 97.1753063 1.35714286 95.5061263 0.857142857 95.5061263 0.5 99.6427898 0.5 99.6427898 0.857142857 98.1187559 1.35714286 98.1187559 13.5714286 97.6833176 13.5714286 88.6116871 1.92857143 88.9019793 1.57142857 88.9019793 12.5714286 90.5711593 13.0714286 90.5711593 13.4285714 86.4344958 13.4285714 86.4344958 13.0714286"></polygon>
                    <path d="M105.811499,13.4285714 L105.811499,13.0714286 L107.335533,12.5714286 L107.335533,1.42857143 L105.811499,0.928571429 L105.811499,0.5 L108.932139,0.5 L108.932139,13.4285714 L105.811499,13.4285714 Z M116.116871,4.14285714 L115.681433,4.21428571 L114.084826,1.21428571 L114.592837,1.42857143 L107.98869,1.42857143 L107.98869,0.5 L114.302545,0.5 L115.39114,7.10542736e-15 L115.536287,7.10542736e-15 L116.116871,4.14285714 Z M113.649387,4.14285714 L113.649387,6.64285714 L113.649387,9.14285714 L112.923657,9.14285714 L112.705938,7.07142857 L107.98869,7.07142857 L107.98869,6.21428571 L112.705938,6.21428571 L112.923657,4.14285714 L113.649387,4.14285714 Z M114.229972,12.7857143 L115.971725,9.78571429 L116.407163,9.85714286 L115.681433,14 L115.536287,14 L114.375118,13.4285714 L107.916117,13.4285714 L107.916117,12.5 L114.592837,12.5 L114.229972,12.7857143 Z" id="Shape"></path>
                    <polygon id="Path" points="131.35721 2 126.785108 13.5714286 126.34967 13.5714286 123.229029 1.35714286 121.777568 0.857142857 121.777568 0.5 126.494816 0.5 126.494816 0.857142857 124.825636 1.35714286 127.29312 11.2142857 126.930254 11.2142857 131.139491 0.285714286 131.647502 0.285714286 136.219604 11.6428571 135.421301 12 137.816211 1.35714286 136.147031 0.857142857 136.147031 0.5 140.138549 0.5 140.138549 0.857142857 138.687088 1.35714286 135.711593 13.5714286 135.276155 13.5714286 130.704053 2.28571429"></polygon>
                    <path d="M153.201697,1.14285714 L151.750236,0.785714286 L152.911404,2.13162821e-14 L153.05655,2.13162821e-14 L153.637135,4.28571429 L153.201697,4.35714286 L151.532516,1.35714286 L151.895382,1.78571429 C151.532516,1.57142857 151.242224,1.35714286 150.879359,1.28571429 C150.516494,1.21428571 150.153629,1.14285714 149.71819,1.14285714 C148.847314,1.14285714 148.194156,1.35714286 147.758718,1.71428571 C147.32328,2.07142857 147.032988,2.64285714 147.032988,3.28571429 C147.032988,3.71428571 147.105561,4.07142857 147.32328,4.35714286 C147.468426,4.64285714 147.758718,4.92857143 148.04901,5.14285714 C148.339303,5.35714286 148.702168,5.5 149.137606,5.71428571 C149.500471,5.85714286 149.93591,6 150.371348,6.14285714 C150.806786,6.28571429 151.242224,6.5 151.677663,6.64285714 C152.113101,6.85714286 152.475966,7.07142857 152.838831,7.28571429 C153.201697,7.57142857 153.491989,7.85714286 153.709708,8.28571429 C153.927427,8.71428571 154,9.21428571 154,9.78571429 C154,10.6428571 153.782281,11.2857143 153.419416,11.8571429 C153.05655,12.4285714 152.475966,12.8571429 151.750236,13.1428571 C151.024505,13.4285714 150.226202,13.5714286 149.355325,13.5714286 C148.702168,13.5714286 148.194156,13.5 147.686145,13.4285714 C147.178134,13.3571429 146.670123,13.2142857 146.162111,13 L145.291235,9.64285714 L145.871819,9.64285714 L148.194156,13 L146.597549,12 C147.105561,12.2857143 147.540999,12.5 147.976437,12.5714286 C148.411876,12.7142857 148.774741,12.7857143 149.282752,12.7857143 C150.008483,12.7857143 150.589067,12.7142857 151.097078,12.5 C151.60509,12.2857143 151.967955,12.0714286 152.258247,11.6428571 C152.548539,11.2857143 152.693685,10.7857143 152.693685,10.2142857 C152.693685,9.71428571 152.548539,9.28571429 152.33082,9 C152.113101,8.71428571 151.822809,8.42857143 151.459943,8.21428571 C151.097078,8 150.66164,7.78571429 150.226202,7.64285714 C149.790763,7.5 149.355325,7.35714286 148.919887,7.14285714 C148.484449,7 148.121583,6.78571429 147.686145,6.64285714 C147.32328,6.42857143 146.960415,6.21428571 146.670123,6 C146.37983,5.71428571 146.162111,5.42857143 146.016965,5.07142857 C145.871819,4.71428571 145.799246,4.28571429 145.799246,3.78571429 C145.799246,3.07142857 145.944392,2.5 146.307257,1.92857143 C146.670123,1.42857143 147.105561,1 147.758718,0.714285714 C148.411876,0.428571429 149.137606,0.285714286 149.93591,0.285714286 C150.516494,0.285714286 151.024505,0.357142857 151.532516,0.5 C152.040528,0.642857143 152.693685,0.857142857 153.201697,1.14285714 Z" id="Path"></path>
                </g>
            </g>
        </g>
    </g>
</svg>