<?xml version="1.0" encoding="UTF-8"?>
<svg width="223px" height="96px" viewBox="0 0 223 96" version="1.1" xmlns="http://www.w3.org/2000/svg" xmlns:xlink="http://www.w3.org/1999/xlink">
    <title>DDN Logo</title>
    <g id="Page-1" stroke="none" stroke-width="1" fill="none" fill-rule="evenodd">
        <g id="DDN_Home" transform="translate(-401.000000, -35.000000)">
            <g id="DDN-Logo" transform="translate(401.000000, 35.000000)">
                <path d="M49.5298805,29.9793103 C49.5298805,30.1241379 49.4541833,30.1965517 49.3027888,30.1965517 C49.1513944,30.1965517 49.0756972,30.1241379 49.0756972,29.9793103 L49.0756972,29.9068966 C49.0756972,29.8344828 49.0756972,29.6896552 49,29.4724138 C50.059761,28.3137931 52.4063745,25.7793103 55.8884462,21.8689655 C56.4183267,21.2896552 56.7968127,21 57.0996016,21 C58.1593625,21 59.5976096,22.0862069 61.4143426,24.1862069 C63.2310757,26.2862069 64.1394422,27.9517241 64.1394422,29.1103448 L64.2908367,51.6310345 C65.8047809,53.5137931 66.8645418,54.4551724 67.5458167,54.4551724 C69.059761,54.4551724 70.6494024,53.1517241 72.3904382,50.5448276 L72.3904382,33.8896552 C72.3904382,31.5724138 72.0876494,30.0517241 71.4820717,29.4724138 C71.2549801,29.2551724 70.4223108,28.8206897 69.059761,28.2413793 C73.0717131,26.0689655 75.6454183,23.6793103 77.0079681,21 C77.310757,21.362069 77.7649402,21.9413793 78.3705179,22.9551724 C80.187251,25.6344828 81.9282869,27.3 83.5179283,28.0241379 C83.6693227,28.0965517 84.2749004,27.8068966 85.1832669,27.2275862 C86.0916335,26.6482759 86.6972112,26.3586207 86.8486056,26.3586207 C86.9243028,26.4310345 86.9243028,26.5034483 86.8486056,26.5758621 L86.9243028,26.7206897 L86.9243028,27.2275862 C85.4103586,28.0241379 84.3505976,28.8206897 83.6693227,29.6896552 C82.9880478,30.4862069 82.6095618,31.7172414 82.6095618,33.4551724 L82.6095618,50.8344828 C82.6095618,51.9931034 83.6693227,53.2241379 85.7131474,54.6 C85.940239,54.7448276 86.3944223,55.0344828 87,55.4689655 L82.7609562,60.1758621 C81.0199203,61.9862069 80.0358566,62.9275862 79.8087649,62.9275862 C78.1434263,62.9275862 76.250996,61.6965517 74.1314741,59.162069 C73.5258964,58.437931 73.0717131,57.4241379 72.8446215,56.2655172 C72.7689243,55.6137931 72.6175299,54.4551724 72.3904382,52.7172414 C69.5896414,54.8896552 67.5458167,56.5551724 66.1832669,57.6413793 C63.5338645,59.7413793 61.5657371,61.5517241 60.2031873,63 C59.5219124,62.2034483 58.2350598,60.9 56.4183267,59.0172414 C54.9043825,57.5689655 53.5418327,56.8448276 52.1792829,56.8448276 C51.8007968,56.8448276 51.2709163,56.7724138 50.438247,56.6275862 C52.6334661,54.5275862 53.6175299,52.7172414 53.6175299,50.9793103 C53.3904382,43.3034483 53.3904382,37.5103448 53.6175299,33.6 C53.6932271,32.5862069 53.4661355,31.5724138 52.936255,30.5586207 C52.4063745,29.4724138 51.7250996,28.9655172 50.8167331,28.8931034 L49.5298805,29.9793103 Z" id="Path" fill="#000000" fill-rule="nonzero"></path>
                <path d="M125.547619,53.0361446 C125.623016,52.9638554 125.698413,52.8915663 125.77381,52.8915663 C125.924603,52.9638554 125.924603,53.0361446 125.924603,53.1084337 L125.924603,53.1807229 C125.924603,53.253012 125.924603,53.3975904 126,53.6144578 C124.492063,55.1325301 122.833333,57.0120482 120.873016,59.1807229 L119.063492,61.2048193 C118.611111,61.7108434 118.234127,62 117.857143,62 C117.103175,62 115.821429,61.1325301 113.861111,59.3975904 C111.674603,57.4457831 110.619048,55.7831325 110.619048,54.4096386 L110.619048,31.4939759 C108.960317,29.9036145 107.904762,29.1084337 107.22619,29.1084337 C106.472222,29.1084337 105.56746,29.6144578 104.361111,30.626506 C103.607143,31.3493976 102.928571,32 102.47619,32.5783133 L102.47619,49.060241 C102.47619,50.6506024 103.380952,52.313253 105.265873,53.9036145 C101.269841,56.2168675 98.5555556,58.8915663 97.047619,61.9277108 C96.218254,60.9879518 94.8611111,59.4698795 93.0515873,57.4457831 C91.6190476,56 90.0357143,54.8433735 88.3015873,54.0481928 C88.6785714,53.8313253 89.5079365,53.3253012 90.8650794,52.4578313 C91.7698413,51.6626506 92.2222222,50.4337349 92.2222222,48.7710843 L92.2222222,31.3493976 C91.8452381,29.3253012 90.4126984,28.0240964 88,27.5903614 C89.2063492,26.3614458 90.5634921,24.8433735 92.1468254,23.0361446 C93.9563492,21.0120482 95.0119048,20 95.2380952,20 C96.8214286,20 98.7063492,21.3012048 100.892857,23.9036145 C101.646825,24.8433735 102.099206,25.7831325 102.25,26.7228916 C102.25,26.939759 102.325397,27.8072289 102.47619,29.3253012 L102.551587,30.3373494 L108.809524,25.3493976 C110.996032,23.5421687 112.956349,21.7349398 114.690476,20 C115.142857,20.4337349 115.821429,21.0843373 116.650794,22.0240964 C117.555556,22.8915663 118.15873,23.6144578 118.535714,24.0481928 C120.496032,25.6385542 122.079365,26.4337349 123.285714,26.4337349 L123.738095,26.4337349 C123.813492,26.5060241 124.039683,26.5060241 124.416667,26.5060241 C122.230159,28.6024096 121.25,30.4819277 121.25,32.2168675 C121.47619,39.8795181 121.47619,45.6626506 121.25,49.5662651 C121.174603,50.5783133 121.325397,51.4457831 121.777778,52.313253 C122.305556,53.4698795 123.059524,54.0481928 123.964286,54.1927711 C124.492063,54.1927711 124.944444,53.8313253 125.547619,53.0361446 Z" id="Path" fill="#000000" fill-rule="nonzero"></path>
                <path d="M160.855263,23.7567222 L161,23.7567222 C159.986842,24.340589 159.335526,25.1434059 159.046053,26.1651729 L159.046053,53.6798976 C156.513158,54.0448143 154.848684,54.2637644 154.052632,54.3367478 C147.756579,55.3585147 143.848684,57.9129321 142.111842,62 L141.605263,62 C140.736842,60.978233 138.927632,59.2266325 136.25,56.7451985 C133.210526,54.0448143 131.328947,52.731114 130.677632,52.731114 C130.388158,52.731114 129.664474,53.2419974 128.361842,54.190781 C128.217105,54.0448143 128.072368,53.971831 128,53.971831 L128.144737,53.6069142 L128.289474,53.971831 L128.361842,54.0448143 L128.361842,54.1177977 L128.434211,54.2637644 L128.072368,54.2637644 C128.217105,53.8988476 129.013158,52.950064 130.460526,51.4174136 L130.460526,29.4494238 C130.315789,28.6466069 130.098684,27.84379 129.809211,27.1139565 C131.401316,27.1139565 133.282895,26.6760563 135.453947,25.8732394 C136.973684,25.362356 138.276316,24.7784891 139.361842,24.1946223 L130.822368,16.8962868 L130.822368,5 L158.684211,24.7055058 C159.480263,24.340589 160.131579,23.9756722 160.710526,23.6837388 L160.782895,23.7567222 L160.927632,23.7567222 L160.710526,23.8297055 L160.710526,23.7567222 L160.855263,23.7567222 Z M148.697368,30.5441741 L141.171053,25.362356 L141.171053,48.206146 L148.697368,53.8988476 L148.697368,30.5441741 Z" id="Shape" fill="#000000" fill-rule="nonzero"></path>
                <path d="M179.155779,62 C174.419598,59.1513043 170.339196,56.6678261 166.987437,54.6226087 C166.258794,54.8417391 165.311558,55.2069565 164.218593,55.7182609 L164,55.28 L166.768844,52.7965217 L166.768844,25.04 C174.638191,25.186087 180.977387,23.506087 185.786432,20 C187.389447,23.1408696 189.648241,27.9617391 192.708543,34.5356522 L177.115578,41.693913 L177.115578,49.1443478 C178.572864,50.0208696 181.050251,51.7008696 184.474874,54.1843478 C185.276382,53.453913 187.680905,51.1895652 191.688442,47.4643478 C192.198492,47.8295652 192.635678,48.1217391 193,48.56 L179.155779,62 Z M177.188442,25.5513043 L177.334171,39.7947826 C178.5,39.3565217 180.540201,38.2608696 183.38191,36.5808696 L177.188442,25.5513043 Z" id="Shape" fill="#000000" fill-rule="nonzero"></path>
                <path d="M209.155779,62 C204.419598,59.1513043 200.339196,56.6678261 196.987437,54.6226087 C196.258794,54.8417391 195.311558,55.2069565 194.218593,55.7182609 L194,55.28 L196.768844,52.7965217 L196.768844,25.04 C204.638191,25.186087 210.977387,23.506087 215.786432,20 C217.389447,23.1408696 219.648241,27.9617391 222.708543,34.5356522 L207.115578,41.693913 L207.115578,49.1443478 C208.572864,50.0208696 211.050251,51.7008696 214.474874,54.1843478 C215.276382,53.453913 217.680905,51.1895652 221.688442,47.4643478 C222.198492,47.8295652 222.635678,48.1217391 223,48.56 L209.155779,62 Z M207.188442,25.5513043 L207.334171,39.7947826 C208.5,39.3565217 210.540201,38.2608696 213.38191,36.5808696 L207.188442,25.5513043 Z" id="Shape" fill="#000000" fill-rule="nonzero"></path>
                <g id="Group" transform="translate(34.000000, 82.000000)" fill="#000000" fill-rule="nonzero">
                    <path d="M0,13.4285714 L0,13.0714286 L1.52403393,12.5714286 L1.52403393,1.42857143 L0,0.928571429 L0,0.5 L3.1206409,0.5 L3.1206409,13.4285714 L0,13.4285714 Z M11.1762488,6.78571429 C11.1762488,4.92857143 10.5956645,3.57142857 9.43449576,2.71428571 C8.27332705,1.85714286 6.74929312,1.42857143 4.71724788,1.42857143 L2.10461828,1.42857143 L2.10461828,0.5 L5.22525919,0.5 C6.96701225,0.5 8.34590009,0.714285714 9.5070688,1.14285714 C10.6682375,1.57142857 11.466541,2.28571429 12.0471254,3.14285714 C12.6277097,4.07142857 12.9180019,5.14285714 12.9180019,6.57142857 C12.9180019,8 12.5551367,9.28571429 11.9019793,10.2857143 C11.2488219,11.2857143 10.3053723,12.0714286 9.14420358,12.6428571 C7.98303487,13.2142857 6.67672008,13.4285714 5.22525919,13.4285714 L2.10461828,13.4285714 L2.10461828,12.5 L4.93496701,12.5 C6.16870877,12.5 7.25730443,12.2857143 8.20075401,11.9285714 C9.14420358,11.5714286 9.86993402,10.9285714 10.3779453,10.0714286 C10.9585297,9.21428571 11.1762488,8.14285714 11.1762488,6.78571429 Z" id="Shape"></path>
                    <path d="M29.6823751,12.5 L31.133836,13 L31.133836,13.3571429 L26.3440151,13.3571429 L26.3440151,13 L28.0131951,12.5 L23.5136664,1.92857143 L24.1668238,1.92857143 L19.9575872,12.5714286 L21.5541942,13.0714286 L21.5541942,13.4285714 L17.4175306,13.4285714 L17.4175306,13.0714286 L18.9415646,12.5714286 L24.0216777,0.357142857 L24.4571159,0.357142857 L29.6823751,12.5 Z M20.9736098,8.57142857 L20.9736098,7.71428571 L27.4326107,7.71428571 L27.4326107,8.57142857 L20.9736098,8.57142857 Z" id="Shape"></path>
                    <polygon id="Path" points="40.6409048 13.0714286 40.6409048 13.4285714 35.99623 13.4285714 35.99623 13.0714286 37.5202639 12.5714286 37.5202639 1.42857143 35.99623 0.928571429 35.99623 0.5 40.6409048 0.5 40.6409048 0.857142857 39.1168709 1.35714286 39.1168709 12.5"></polygon>
                    <path d="M50.0754006,1.35714286 L50.0754006,13.4285714 L46.9547597,13.4285714 L46.9547597,13.0714286 L48.4787936,12.5714286 L48.4787936,1.42857143 L46.9547597,0.928571429 L46.9547597,0.5 L51.5994345,0.5 L51.5994345,0.857142857 L50.0754006,1.35714286 Z M56.4618285,14 L56.2441093,14 L55.0829406,13.4285714 L49.131951,13.4285714 L49.131951,12.5 L56.3166824,12.5 L54.9377945,12.7857143 L56.8972667,9.57142857 L57.332705,9.64285714 L56.4618285,14 Z" id="Shape"></path>
                    <polygon id="Path" points="61.6145146 1.42857143 60.1630537 0.928571429 60.1630537 0.5 65.1705938 0.5 65.1705938 0.857142857 63.5739868 1.35714286 67.7832234 7.35714286 67.130066 7.35714286 70.5409991 1.35714286 68.9443921 0.857142857 68.9443921 0.5 73.1536287 0.5 73.1536287 0.857142857 71.6295947 1.35714286 67.7106503 7.71428571 67.7106503 12.5 69.2346843 13 69.2346843 13.3571429 64.5900094 13.3571429 64.5900094 13 66.1140434 12.5 66.1140434 7.78571429"></polygon>
                    <polygon id="Path" points="88.0311027 12.5714286 88.0311027 1.57142857 86.4344958 0.928571429 86.4344958 0.5 89.4825636 0.5 97.6107446 11 97.1753063 11.8571429 97.1753063 1.35714286 95.5061263 0.857142857 95.5061263 0.5 99.6427898 0.5 99.6427898 0.857142857 98.1187559 1.35714286 98.1187559 13.5714286 97.6833176 13.5714286 88.6116871 1.92857143 88.9019793 1.57142857 88.9019793 12.5714286 90.5711593 13.0714286 90.5711593 13.4285714 86.4344958 13.4285714 86.4344958 13.0714286"></polygon>
                    <path d="M105.811499,13.4285714 L105.811499,13.0714286 L107.335533,12.5714286 L107.335533,1.42857143 L105.811499,0.928571429 L105.811499,0.5 L108.932139,0.5 L108.932139,13.4285714 L105.811499,13.4285714 Z M116.116871,4.14285714 L115.681433,4.21428571 L114.084826,1.21428571 L114.592837,1.42857143 L107.98869,1.42857143 L107.98869,0.5 L114.302545,0.5 L115.39114,7.10542736e-15 L115.536287,7.10542736e-15 L116.116871,4.14285714 Z M113.649387,4.14285714 L113.649387,6.64285714 L113.649387,9.14285714 L112.923657,9.14285714 L112.705938,7.07142857 L107.98869,7.07142857 L107.98869,6.21428571 L112.705938,6.21428571 L112.923657,4.14285714 L113.649387,4.14285714 Z M114.229972,12.7857143 L115.971725,9.78571429 L116.407163,9.85714286 L115.681433,14 L115.536287,14 L114.375118,13.4285714 L107.916117,13.4285714 L107.916117,12.5 L114.592837,12.5 L114.229972,12.7857143 Z" id="Shape"></path>
                    <polygon id="Path" points="131.35721 2 126.785108 13.5714286 126.34967 13.5714286 123.229029 1.35714286 121.777568 0.857142857 121.777568 0.5 126.494816 0.5 126.494816 0.857142857 124.825636 1.35714286 127.29312 11.2142857 126.930254 11.2142857 131.139491 0.285714286 131.647502 0.285714286 136.219604 11.6428571 135.421301 12 137.816211 1.35714286 136.147031 0.857142857 136.147031 0.5 140.138549 0.5 140.138549 0.857142857 138.687088 1.35714286 135.711593 13.5714286 135.276155 13.5714286 130.704053 2.28571429"></polygon>
                    <path d="M153.201697,1.14285714 L151.750236,0.785714286 L152.911404,2.13162821e-14 L153.05655,2.13162821e-14 L153.637135,4.28571429 L153.201697,4.35714286 L151.532516,1.35714286 L151.895382,1.78571429 C151.532516,1.57142857 151.242224,1.35714286 150.879359,1.28571429 C150.516494,1.21428571 150.153629,1.14285714 149.71819,1.14285714 C148.847314,1.14285714 148.194156,1.35714286 147.758718,1.71428571 C147.32328,2.07142857 147.032988,2.64285714 147.032988,3.28571429 C147.032988,3.71428571 147.105561,4.07142857 147.32328,4.35714286 C147.468426,4.64285714 147.758718,4.92857143 148.04901,5.14285714 C148.339303,5.35714286 148.702168,5.5 149.137606,5.71428571 C149.500471,5.85714286 149.93591,6 150.371348,6.14285714 C150.806786,6.28571429 151.242224,6.5 151.677663,6.64285714 C152.113101,6.85714286 152.475966,7.07142857 152.838831,7.28571429 C153.201697,7.57142857 153.491989,7.85714286 153.709708,8.28571429 C153.927427,8.71428571 154,9.21428571 154,9.78571429 C154,10.6428571 153.782281,11.2857143 153.419416,11.8571429 C153.05655,12.4285714 152.475966,12.8571429 151.750236,13.1428571 C151.024505,13.4285714 150.226202,13.5714286 149.355325,13.5714286 C148.702168,13.5714286 148.194156,13.5 147.686145,13.4285714 C147.178134,13.3571429 146.670123,13.2142857 146.162111,13 L145.291235,9.64285714 L145.871819,9.64285714 L148.194156,13 L146.597549,12 C147.105561,12.2857143 147.540999,12.5 147.976437,12.5714286 C148.411876,12.7142857 148.774741,12.7857143 149.282752,12.7857143 C150.008483,12.7857143 150.589067,12.7142857 151.097078,12.5 C151.60509,12.2857143 151.967955,12.0714286 152.258247,11.6428571 C152.548539,11.2857143 152.693685,10.7857143 152.693685,10.2142857 C152.693685,9.71428571 152.548539,9.28571429 152.33082,9 C152.113101,8.71428571 151.822809,8.42857143 151.459943,8.21428571 C151.097078,8 150.66164,7.78571429 150.226202,7.64285714 C149.790763,7.5 149.355325,7.35714286 148.919887,7.14285714 C148.484449,7 148.121583,6.78571429 147.686145,6.64285714 C147.32328,6.42857143 146.960415,6.21428571 146.670123,6 C146.37983,5.71428571 146.162111,5.42857143 146.016965,5.07142857 C145.871819,4.71428571 145.799246,4.28571429 145.799246,3.78571429 C145.799246,3.07142857 145.944392,2.5 146.307257,1.92857143 C146.670123,1.42857143 147.105561,1 147.758718,0.714285714 C148.411876,0.428571429 149.137606,0.285714286 149.93591,0.285714286 C150.516494,0.285714286 151.024505,0.357142857 151.532516,0.5 C152.040528,0.642857143 152.693685,0.857142857 153.201697,1.14285714 Z" id="Path"></path>
                </g>
                <g id="Group">
                    <polygon id="Path" points="27.435628 32.3115824 30.9889648 30.8462045 31.1339989 25.0579619 27.435628 26.8164153"></polygon>
                    <polygon id="Path" points="27.435628 24.9114241 31.1339989 23.1529706 31.1339989 16.9983835 27.435628 16.9983835"></polygon>
                    <path d="M15.8328954,18.9033747 L15.8328954,46.9653613 C16.4130321,46.7455546 17.3557541,46.3059412 18.5885444,45.6465212 L18.5885444,17.2914591 C16.8481345,17.8043413 15.9779296,18.3172236 15.8328954,18.9033747 Z" id="Path"></path>
                    <polygon id="Path" points="27.435628 34.5096492 27.435628 41.6900009 31.1339989 39.4919341 30.9889648 32.9710025"></polygon>
                    <polygon id="Path" points="32.6568576 39.2721274 36.6452969 37.5136739 36.6452969 30.8462045 32.6568576 32.3115824"></polygon>
                    <polygon id="Path" points="32.8744088 53.1199484 36.8628481 53.1199484 36.8628481 45.2801767 32.8744088 47.185168"></polygon>
                    <polygon id="Path" points="32.6568576 30.4065912 36.6452969 28.7214066 36.6452969 22.4202817 32.6568576 24.4718107"></polygon>
                    <path d="M32.8744088,17.2181902 L32.8744088,22.4935506 L36.6452969,20.5152904 C35.847609,18.756837 34.6148187,17.6578035 32.8744088,17.2181902 Z" id="Path"></path>
                    <path d="M19.8213347,53.1199484 L31.1339989,53.1199484 C31.1339989,49.8961171 31.1339989,48.1376636 31.0614819,47.844588 C29.1035208,48.7970836 25.3326327,50.5555371 19.8213347,53.1199484 Z" id="Path"></path>
                    <path d="M45.8549658,18.2439547 C45.5648975,14.3607033 43.0993169,11.5032164 38.3131897,9.74476295 C34.9774041,8.49919175 30.9889648,7.8397717 26.2028376,7.8397717 L14.9626905,7.8397717 C12.5696269,7.8397717 10.9017341,7.7665028 10.0315292,7.47342723 C7.92853389,6.96054496 6.84077772,5.78824265 6.84077772,4.17632698 C6.84077772,2.5644113 7.85601682,1.75845346 9.95901209,1.75845346 C11.2643195,1.75845346 13.0047294,2.34460462 15.1077246,3.59017582 C17.2107199,4.83574703 18.9511298,5.42189818 20.1839201,5.42189818 C21.4892275,5.42189818 22.9395691,4.68920924 24.5349448,3.29710025 C24.679979,1.09903342 23.6647399,0 21.4892275,0 C20.4739884,0 19.8213347,0.586151155 19.3862323,1.75845346 C19.3137152,1.83172236 19.3862323,2.12479794 19.5312664,2.78421799 C19.6037835,3.15056246 19.6037835,3.37036914 19.3862323,3.37036914 L18.2984761,3.37036914 C14.6726222,1.3188401 11.699422,0.293075577 9.45139254,0.293075577 C6.98581188,0.293075577 4.95533368,1.09903342 3.2149238,2.71094909 C1.47451393,4.32286477 0.676826064,6.22785602 0.676826064,8.57246064 C0.676826064,12.0160987 2.41723594,14.3607033 5.8980557,15.6062745 C7.27588019,16.1191568 10.3215975,16.5587701 15.1077246,16.9251146 L7.5659485,21.1014416 L7.5659485,23.0064328 L7.5659485,42.4226898 L7.5659485,52.4605284 C7.5659485,52.9734106 7.42091435,53.7793685 7.20336311,54.2189818 C17.6458224,49.0901592 27.508145,44.40095 36.8628481,40.1513541 L36.8628481,43.5217233 C23.5197057,49.6763104 13.2947977,54.5120574 6.11560694,58.1022332 C2.41723594,59.8606867 0.386757751,62.9379803 0.0241723594,67.260845 C-0.120861797,69.1658363 0.386757751,70.9242897 1.547031,72.4629365 C2.70730426,74.0015833 4.2301629,74.88081 6.18812401,74.9540789 C11.3368366,75.3204234 13.8749343,73.488701 13.8749343,69.6787185 C13.8749343,67.7004584 12.8596952,66.6746939 10.829217,66.6746939 C9.45139254,66.6746939 8.79873883,67.4806517 8.79873883,69.1658363 C8.79873883,69.6054496 9.45139254,70.4846764 10.7566999,71.8035165 C9.52390962,72.4629365 8.36363636,72.829281 7.13084603,72.829281 C5.68050447,72.829281 4.52023121,72.3896676 3.65002627,71.5837098 C2.70730426,70.7044831 2.27220179,69.6054496 2.27220179,68.1400718 C2.27220179,63.5241314 5.245402,61.1795268 11.1192853,61.1795268 L30.8439306,61.1795268 C32.0042039,58.6883844 34.1071992,56.6368553 37.2979506,55.0249397 C40.2711508,53.413024 43.1718339,52.680335 46,52.9001417 L46,23.1529706 C45.9274829,20.7350971 45.9274829,19.0499125 45.8549658,18.2439547 Z M18.5885444,45.6465212 C17.3557541,46.3059412 16.4130321,46.7455546 15.8328954,46.9653613 L15.8328954,18.9033747 C15.9054125,18.3172236 16.8481345,17.8043413 18.5885444,17.364728 L18.5885444,45.6465212 Z M27.435628,41.6900009 L27.435628,34.5096492 L31.0614819,33.0442714 L31.1339989,39.565203 L27.435628,41.6900009 Z M30.9889648,30.8462045 L27.3631109,32.3115824 L27.3631109,26.8164153 L31.0614819,25.0579619 L30.9889648,30.8462045 Z M31.1339989,23.1529706 L27.435628,24.9114241 L27.435628,16.9983835 L31.1339989,16.9983835 L31.1339989,23.1529706 Z M36.6452969,37.5136739 L32.6568576,39.2721274 L32.6568576,32.3115824 L36.6452969,30.8462045 L36.6452969,37.5136739 Z M36.6452969,28.7214066 L32.6568576,30.4798601 L32.6568576,24.5450796 L36.6452969,22.4935506 L36.6452969,28.7214066 Z M32.8744088,22.4935506 L32.8744088,17.2181902 C34.6148187,17.5845346 35.847609,18.6835681 36.6452969,20.5152904 L32.8744088,22.4935506 Z M19.8213347,53.1199484 C25.3326327,50.5555371 29.1035208,48.7970836 31.0614819,47.844588 C31.1339989,48.1376636 31.1339989,49.8961171 31.1339989,53.1199484 L19.8213347,53.1199484 Z M36.8628481,53.1199484 L32.8744088,53.1199484 L32.8744088,47.185168 L36.8628481,45.2801767 L36.8628481,53.1199484 Z" id="Shape" fill="#000000" fill-rule="nonzero"></path>
                </g>
                <line x1="58" y1="21" x2="49" y2="31" id="Path" stroke="#000000" stroke-width="1.5"></line>
                <line x1="10" y1="20" x2="2" y2="24" id="Path" stroke="#000000" stroke-width="1.5"></line>
                <line x1="10" y1="51" x2="2" y2="55" id="Path" stroke="#000000" stroke-width="1.5"></line>
                <line x1="127" y1="52" x2="119" y2="61" id="Path" stroke="#000000" stroke-width="1.5"></line>
                <line x1="97" y1="20" x2="88" y2="30" id="Path" stroke="#000000" stroke-width="1.5"></line>
                <line x1="132" y1="50" x2="129" y2="54" id="Path" stroke="#000000" stroke-width="1.5"></line>
                <line x1="168" y1="53" x2="162" y2="57" id="Path" stroke="#000000" stroke-width="1.5"></line>
                <line x1="197" y1="53" x2="191" y2="57" id="Path" stroke="#000000" stroke-width="1.5"></line>
                <line x1="87" y1="26" x2="83" y2="29" id="Path" stroke="#000000" stroke-width="1.5"></line>
                <line x1="162" y1="23" x2="158" y2="26" id="Path" stroke="#000000" stroke-width="1.5"></line>
            </g>
        </g>
    </g>
</svg>