<?xml version="1.0" encoding="UTF-8"?>
<svg width="43px" height="68px" viewBox="0 0 43 68" version="1.1" xmlns="http://www.w3.org/2000/svg" xmlns:xlink="http://www.w3.org/1999/xlink">
    <title>ddn-favicon copy</title>
    <g id="Symbols" stroke="none" stroke-width="1" fill="none" fill-rule="evenodd">
        <g id="Footer" transform="translate(-408.000000, -92.000000)">
            <g id="ddn-favicon-copy" transform="translate(408.000000, 92.000000)">
                <g id="Group">
                    <polygon id="Path" points="25.6463479 29.3244824 29.0357331 27.9945739 29.1035208 22.7414353 25.6463479 24.3373255"></polygon>
                    <polygon id="Path" points="25.6463479 22.6084444 29.1035208 21.0125543 29.1035208 15.4269386 25.6463479 15.4269386"></polygon>
                    <path d="M14.8003153,17.1558196 L14.8003153,42.6235673 C15.3426169,42.424081 16.2238571,42.0251085 17.376248,41.4266497 L17.376248,15.7594157 C15.8171308,16.1583882 14.9358907,16.6238562 14.8003153,17.1558196 Z" id="Path"></path>
                    <polygon id="Path" points="25.6463479 31.3193451 25.6463479 37.8358967 29.1035208 35.841034 29.0357331 29.9229412"></polygon>
                    <polygon id="Path" points="30.5270625 35.6415477 34.3231739 34.0456575 34.3231739 27.9945739 30.5270625 29.3244824"></polygon>
                    <polygon id="Path" points="30.7982133 48.209183 34.526537 48.209183 34.526537 41.0941726 30.7982133 42.8230536"></polygon>
                    <polygon id="Path" points="30.5270625 27.6620967 34.3231739 26.0662065 34.3231739 20.3476 30.5270625 22.2094719"></polygon>
                    <path d="M30.7982133,15.6264248 L30.7982133,20.4140954 L34.3231739,18.618719 C33.5775092,17.0228288 32.3573305,16.0253974 30.7982133,15.6264248 Z" id="Path"></path>
                    <path d="M18.5964267,48.209183 L29.1713085,48.209183 C29.1713085,45.2833843 29.1713085,43.6874941 29.1035208,43.4215124 C27.2054651,44.2859529 23.6805045,45.8818431 18.5964267,48.209183 Z" id="Path"></path>
                    <path d="M42.9322123,16.5573608 C42.6610615,13.0331033 40.3562796,10.4397817 35.8822911,8.8438915 C32.7640568,7.71346928 29.0357331,7.11501046 24.5617446,7.11501046 L13.9868628,7.11501046 C11.7498686,7.11501046 10.1907514,7.04851503 9.377299,6.78253333 C7.4114556,6.31706536 6.39464004,5.25313856 6.39464004,3.79023922 C6.39464004,2.32733987 7.34366789,1.5958902 9.3095113,1.5958902 C10.52969,1.5958902 12.1565949,2.12785359 14.1224383,3.25827582 C16.0882817,4.38869804 17.7151865,4.92066144 18.8675775,4.92066144 C20.0877562,4.92066144 21.4435102,4.25570719 22.9348397,2.99229412 C23.0704151,0.997431373 22.1213873,0 20.0877562,0 C19.1387283,0 18.528639,0.531963399 18.1219128,1.5958902 C18.0541251,1.66238562 18.1219128,1.92836732 18.2574882,2.52682614 C18.3252759,2.85930327 18.3252759,3.05878954 18.1219128,3.05878954 L17.1050972,3.05878954 C13.715712,1.19691765 10.9364162,0.265981699 8.83499737,0.265981699 C6.53021545,0.265981699 4.63215975,0.997431373 3.00525486,2.46033072 C1.37834997,3.92323007 0.632685234,5.65211111 0.632685234,7.77996471 C0.632685234,10.9052497 2.25959012,13.0331033 5.51339989,14.1635255 C6.80136626,14.6289935 9.64844982,15.027966 14.1224383,15.3604431 L7.07251708,19.1506824 L7.07251708,20.8795634 L7.07251708,38.500851 L7.07251708,47.6107242 C7.07251708,48.0761922 6.93694167,48.8076418 6.73357856,49.2066144 C16.4950079,44.5519346 25.7141356,40.2962275 34.4587493,36.4394928 L34.4587493,39.3652915 C21.9858119,44.9509072 12.4277457,49.3396052 5.71676301,52.597881 C2.25959012,54.3267621 0.361534419,57.1195699 0.0225959012,60.9763046 C-0.112979506,62.7051856 0.361534419,64.3010758 1.44613768,65.6974797 C2.53074094,67.0938837 3.95428271,67.8918288 5.78455071,67.9583242 C10.5974777,68.2908013 12.9700473,66.6284157 12.9700473,63.1706536 C12.9700473,61.3752771 12.0210194,60.4443412 10.1229637,60.4443412 C8.83499737,60.4443412 8.22490804,61.1757909 8.22490804,62.7051856 C8.22490804,63.1041582 8.83499737,63.9021033 10.055176,65.0990209 C8.90278508,65.6974797 7.81818182,66.0299569 6.66579086,66.0299569 C5.31003678,66.0299569 4.22543353,65.6309843 3.41198108,64.8995346 C2.53074094,64.1015895 2.12401471,63.1041582 2.12401471,61.7742497 C2.12401471,57.5850379 4.90331056,55.4571843 10.3941146,55.4571843 L28.8323699,55.4571843 C29.9169732,53.1963399 31.8828166,51.334468 34.8654756,49.8715686 C37.6447714,48.4086693 40.3562796,47.743715 43,47.9432013 L43,21.0125543 C43,18.8182052 42.9322123,17.2888105 42.9322123,16.5573608 Z M17.4440357,41.4266497 C16.2916448,42.0251085 15.4104046,42.424081 14.868103,42.6235673 L14.868103,17.1558196 C14.9358907,16.6238562 15.8171308,16.1583882 17.4440357,15.7594157 L17.4440357,41.4266497 Z M25.6463479,37.8358967 L25.6463479,31.3193451 L29.0357331,29.9894366 L29.1035208,35.9075294 L25.6463479,37.8358967 Z M29.0357331,27.9945739 L25.6463479,29.3244824 L25.6463479,24.3373255 L29.1035208,22.7414353 L29.0357331,27.9945739 Z M29.1035208,21.0125543 L25.6463479,22.6084444 L25.6463479,15.4269386 L29.1035208,15.4269386 L29.1035208,21.0125543 Z M34.3231739,34.0456575 L30.5948502,35.6415477 L30.5948502,29.3244824 L34.3231739,27.9945739 L34.3231739,34.0456575 Z M34.3231739,26.0662065 L30.5948502,27.6620967 L30.5948502,22.2759673 L34.3231739,20.4140954 L34.3231739,26.0662065 Z M30.7982133,20.4140954 L30.7982133,15.6264248 C32.4251182,15.958902 33.5775092,16.9563333 34.3231739,18.618719 L30.7982133,20.4140954 Z M18.5964267,48.209183 C23.7482922,45.8818431 27.2732528,44.2859529 29.1035208,43.4215124 C29.1713085,43.6874941 29.1713085,45.2833843 29.1713085,48.209183 L18.5964267,48.209183 Z M34.526537,48.209183 L30.7982133,48.209183 L30.7982133,42.8230536 L34.526537,41.0941726 L34.526537,48.209183 Z" id="Shape" fill="#000000" fill-rule="nonzero"></path>
                </g>
                <line x1="10" y1="18" x2="3" y2="22" id="Path" stroke="#000000" stroke-width="0.75"></line>
                <line x1="10" y1="47" x2="3" y2="51" id="Path" stroke="#000000" stroke-width="0.75"></line>
            </g>
        </g>
    </g>
</svg>